<svg width="22" height="23" viewBox="0 0 22 23" fill="none" xmlns="http://www.w3.org/2000/svg">
<path d="M12.6067 17.25C11.1067 17.25 9.90674 18.45 9.90674 19.95C9.90674 21.45 11.1067 22.65 12.6067 22.65C14.1067 22.65 15.3067 21.45 15.3067 19.95C15.3067 18.4875 14.0692 17.25 12.6067 17.25ZM12.6067 21C12.0442 21 11.5942 20.55 11.5942 19.9875C11.5942 19.425 12.0442 18.975 12.6067 18.975C13.1692 18.975 13.6192 19.425 13.6192 19.9875C13.6192 20.5125 13.1317 21 12.6067 21Z" fill="#355130"/>
<path d="M5.48174 17.25C3.98174 17.25 2.78174 18.45 2.78174 19.95C2.78174 21.45 3.98174 22.65 5.48174 22.65C6.98174 22.65 8.18174 21.45 8.18174 19.95C8.18174 18.4875 6.94424 17.25 5.48174 17.25ZM5.48174 21C4.91924 21 4.46924 20.55 4.46924 19.9875C4.46924 19.425 4.91924 18.975 5.48174 18.975C6.04424 18.975 6.49424 19.425 6.49424 19.9875C6.49424 20.5125 6.04424 21 5.48174 21Z" fill="#355130"/>
<path d="M20.5191 0H18.4941C17.5941 0 16.8066 0.675 16.6941 1.575L16.0941 5.8875H1.28163C0.906634 5.8875 0.531634 6.075 0.269134 6.375C0.0441343 6.675 -0.0683657 7.0875 0.0441343 7.4625C0.0441343 7.5 0.0441343 7.5 0.0441343 7.5375L2.36913 14.55C2.51913 15.075 3.00663 15.45 3.56913 15.45H13.9191C15.3066 15.45 16.5066 14.4 16.6941 13.0125L18.2691 1.8C18.2691 1.725 18.3441 1.6875 18.4191 1.6875H20.4441C20.8941 1.6875 21.3066 1.3125 21.3066 0.825C21.3066 0.3375 20.9691 0 20.5191 0ZM15.0816 12.75C15.0066 13.3125 14.5191 13.725 13.9566 13.725H3.90663L1.88163 7.575H15.8316L15.0816 12.75Z" fill="#355130"/>
</svg>
