<svg width="20" height="24" viewBox="0 0 20 24" fill="none" xmlns="http://www.w3.org/2000/svg">
<path opacity="0.5" d="M19.1625 5.817C19.1625 4.9545 18.45 4.2795 17.5875 4.242L14.2875 4.2045C12.7125 1.8045 9.9 -0.558003 5.625 0.116997C5.175 0.191997 4.8375 0.604497 4.9125 1.092C4.9875 1.542 5.4 1.8795 5.8875 1.8045C8.8875 1.317 10.9125 2.7045 12.15 4.2045L9.7875 4.167H9.75C9.3375 4.167 8.925 4.3545 8.625 4.617L0.675 12.5295C0.225 12.9795 0 13.542 0 14.1795C0 14.817 0.225 15.3795 0.675 15.8295L7.5375 22.692C7.9875 23.142 8.5875 23.367 9.1875 23.367C9.7875 23.367 10.3875 23.142 10.8375 22.692L18.7875 14.742C19.0875 14.442 19.275 14.0295 19.2375 13.5795L19.1625 5.817ZM9.675 21.5295C9.4125 21.792 9 21.792 8.7375 21.5295L1.875 14.667C1.7625 14.5545 1.6875 14.367 1.6875 14.217C1.6875 14.0295 1.7625 13.8795 1.875 13.767L9.825 5.817L13.35 5.892C13.5 6.192 13.6125 6.4545 13.725 6.6795C13.0875 7.0545 12.675 7.767 12.675 8.5545C12.675 9.7545 13.65 10.7295 14.85 10.7295C16.05 10.7295 17.025 9.7545 17.025 8.5545C17.025 7.542 16.35 6.717 15.4125 6.4545C15.3375 6.3045 15.3 6.117 15.225 5.967L17.475 6.0045L17.625 13.6545L9.675 21.5295ZM14.8125 7.992C15.075 7.992 15.3 8.217 15.3 8.4795C15.3 8.742 15.075 8.967 14.8125 8.967C14.55 8.967 14.325 8.742 14.325 8.4795C14.325 8.217 14.55 7.992 14.8125 7.992Z" fill="#121212"/>
</svg>
