<svg width="19" height="23" viewBox="0 0 19 23" fill="none" xmlns="http://www.w3.org/2000/svg">
<path d="M16.35 7.3875H14.0625V4.6125C14.0625 2.0625 12 0 9.45 0C6.9 0 4.875 2.0625 4.875 4.6125V7.3875H2.5875C1.1625 7.3875 0 8.5125 0 9.8625V15.3C0 19.1625 3.3375 22.3125 7.425 22.3125H11.55C15.6375 22.3125 18.9375 19.125 18.9375 15.1875V9.8625C18.9375 8.5125 17.775 7.3875 16.35 7.3875ZM6.5625 4.6125C6.5625 3 7.875 1.6875 9.4875 1.6875C11.1 1.6875 12.4125 3 12.4125 4.6125V7.3875H6.5625V4.6125ZM17.25 15.1875C17.25 18.1875 14.7 20.625 11.55 20.625H7.425C4.275 20.625 1.6875 18.225 1.6875 15.3V9.8625C1.6875 9.4125 2.1 9.075 2.5875 9.075H16.35C16.8375 9.075 17.25 9.4125 17.25 9.8625V15.1875Z" fill="#C9E26C"/>
<path d="M10.9875 13.95H7.9125C7.2375 13.95 6.675 14.5125 6.675 15.1875V18.2625C6.675 18.9375 7.2375 19.5 7.9125 19.5H10.9875C11.6625 19.5 12.225 18.9375 12.225 18.2625V15.1875C12.225 14.5125 11.6625 13.95 10.9875 13.95ZM10.5375 17.775H8.4V15.6375H10.5375V17.775Z" fill="#C9E26C"/>
</svg>
