<svg width="23" height="23" viewBox="0 0 23 23" fill="none" xmlns="http://www.w3.org/2000/svg">
<path d="M21.8719 17.9063L18.0094 14.0438C17.4844 13.5188 16.7719 13.2188 16.0219 13.2188C15.5719 13.2188 15.1219 13.3313 14.7469 13.5188L12.7969 11.5688C15.0094 8.75634 14.8219 4.66885 12.2344 2.04385C9.45938 -0.693655 4.88438 -0.693655 2.10938 2.11885C-0.703125 4.93134 -0.703125 9.46884 2.10938 12.2813C3.49688 13.6313 5.33437 14.3438 7.17188 14.3438C8.74687 14.3438 10.3219 13.8188 11.5969 12.8063L13.5469 14.7563C13.3594 15.1313 13.2469 15.5813 13.2469 16.0313C13.2469 16.7813 13.5469 17.4938 14.0719 18.0188L17.9344 21.8813C18.4969 22.4438 19.2094 22.7063 19.9219 22.7063C20.6344 22.7063 21.3469 22.4438 21.9094 21.8813C22.9594 20.7938 22.9594 18.9938 21.8719 17.9063ZM3.27188 11.0438C1.13438 8.90635 1.13438 5.41885 3.27188 3.28135C4.35938 2.19385 5.74687 1.66884 7.13437 1.66884C8.52187 1.66884 9.94688 2.19385 11.0344 3.28135C13.1719 5.41885 13.1719 8.90635 11.0344 11.0438C8.89688 13.1813 5.40938 13.1813 3.27188 11.0438ZM20.6719 20.6813C20.2594 21.0938 19.5469 21.1313 19.0969 20.6813L15.2344 16.8188C15.0094 16.5938 14.8969 16.3313 14.8969 16.0313C14.8969 15.7313 15.0094 15.4688 15.2344 15.2438C15.4594 15.0188 15.7219 14.9063 16.0219 14.9063C16.3219 14.9063 16.5844 15.0188 16.8094 15.2438L20.6719 19.1063C21.0844 19.5563 21.0844 20.2313 20.6719 20.6813Z" fill="#355130"/>
</svg>
