<svg width="19" height="23" viewBox="0 0 19 23" fill="none" xmlns="http://www.w3.org/2000/svg">
<g opacity="0.5">
<path d="M9.375 0C4.2 0 0 4.05 0 9.0375C0 12.825 5.025 18.825 7.9875 22.05C8.3625 22.4625 8.85 22.65 9.375 22.65C9.9 22.65 10.3875 22.425 10.7625 22.05C13.725 18.825 18.75 12.825 18.75 9.0375C18.75 4.05 14.55 0 9.375 0ZM9.525 20.925C9.45 21 9.3375 21 9.225 20.925C5.5875 16.95 1.6875 11.775 1.6875 9.0375C1.6875 4.9875 5.1375 1.6875 9.375 1.6875C13.6125 1.6875 17.0625 4.9875 17.0625 9.0375C17.0625 11.775 13.1625 16.95 9.525 20.925Z" fill="#121212"/>
<path d="M9.375 5.2125C7.125 5.2125 5.2875 7.05 5.2875 9.3C5.2875 11.55 7.125 13.425 9.375 13.425C11.625 13.425 13.4625 11.5875 13.4625 9.3375C13.4625 7.0875 11.625 5.2125 9.375 5.2125ZM9.375 11.7375C8.025 11.7375 6.975 10.65 6.975 9.3375C6.975 8.025 8.0625 6.9375 9.375 6.9375C10.6875 6.9375 11.775 8.025 11.775 9.3375C11.775 10.65 10.725 11.7375 9.375 11.7375Z" fill="#121212"/>
</g>
</svg>
