<svg width="24" height="24" viewBox="0 0 24 24" fill="none" xmlns="http://www.w3.org/2000/svg">
<path d="M15.8604 12.525C14.0604 12.525 12.5604 14.025 12.5604 15.825C12.5604 17.625 14.0229 19.125 15.8604 19.125C17.6979 19.125 19.1604 17.625 19.1604 15.825C19.1604 14.025 17.6604 12.525 15.8604 12.525ZM15.8604 17.475C14.9604 17.475 14.2479 16.7625 14.2479 15.8625C14.2479 14.9625 14.9604 14.25 15.8604 14.25C16.7604 14.25 17.4729 14.9625 17.4729 15.8625C17.4729 16.725 16.7604 17.475 15.8604 17.475Z" fill="#355130"/>
<path d="M22.9104 17.0625L21.7479 16.425C21.7854 16.2 21.7854 15.975 21.7854 15.7875C21.7854 15.5625 21.7854 15.3375 21.7479 15.15L22.9479 14.475C23.3979 14.2125 23.5479 13.6875 23.3604 13.2L21.9354 10.7625C21.6729 10.35 21.1479 10.1625 20.6979 10.35L19.3854 11.0625L19.3479 11.025C19.1229 10.8375 18.8604 10.6125 18.5229 10.425V9.6375C18.5229 8.85 17.8854 8.175 17.0604 8.175H14.6229C13.8354 8.175 13.1604 8.8125 13.1604 9.6375V10.425C12.8229 10.6125 12.5604 10.8375 12.2979 11.025L11.2104 10.425C10.5354 10.05 9.97285 10.3125 9.74785 10.725L8.39785 13.0125C8.24785 13.2375 8.21035 13.5375 8.28535 13.8C8.36035 14.0625 8.54785 14.2875 8.77285 14.4L9.97285 15.0375C9.93535 15.225 9.93535 15.45 9.93535 15.675C9.93535 15.9 9.93535 16.0875 9.97285 16.3125L8.73535 17.1C8.28535 17.3625 8.13535 17.8875 8.32285 18.375L9.74785 20.8125C10.0104 21.225 10.5354 21.4125 10.9854 21.225L12.2979 20.5125C12.2979 20.5125 12.3354 20.5125 12.3354 20.55C12.5979 20.775 12.8229 20.9625 13.1979 21.15V22.05C13.1979 22.8375 13.8354 23.5125 14.6604 23.5125H17.0979C17.8854 23.5125 18.5604 22.875 18.5604 22.05V21.1125C18.8979 20.925 19.1229 20.7375 19.3854 20.5125C19.3854 20.5125 19.4229 20.5125 19.4229 20.475L20.5104 21.075C21.1854 21.45 21.7479 21.1875 21.9729 20.775L23.3229 18.4875C23.4729 18.2625 23.5104 17.9625 23.4354 17.7C23.3229 17.4 23.1729 17.175 22.9104 17.0625ZM20.0604 15.1125C20.0979 15.3 20.0979 15.525 20.0979 15.7875C20.0979 16.0125 20.0979 16.2375 20.0229 16.4625C19.9479 16.9875 20.1729 17.5125 20.6604 17.775L21.4854 18.225L20.8104 19.35L19.9104 18.825C19.4604 18.5625 18.9354 18.6375 18.5604 18.9375C18.4479 19.0125 18.3354 19.125 18.2604 19.2C18.0354 19.3875 17.8854 19.5375 17.6604 19.6125C17.1729 19.8375 16.8354 20.3625 16.8354 20.925V21.7875H14.8479V20.9625C14.8479 20.4 14.5104 19.875 14.0229 19.65C13.7979 19.5375 13.6479 19.425 13.4229 19.2C13.3104 19.125 13.2354 19.05 13.1229 18.9375C12.7479 18.6375 12.1854 18.6 11.7729 18.825L10.8729 19.35L10.1979 18.225L11.0604 17.7375C11.5104 17.475 11.7729 16.9875 11.6979 16.4625C11.6604 16.2375 11.6604 16.0125 11.6604 15.7875C11.6604 15.525 11.6604 15.3375 11.6979 15.1125C11.7729 14.5875 11.5479 14.0625 11.0604 13.8L10.2354 13.35L10.8729 12.225L11.7729 12.7125C12.2229 12.975 12.7479 12.9 13.1229 12.6C13.2354 12.525 13.3104 12.45 13.4229 12.3375C13.6479 12.1125 13.8354 12 14.0229 11.8875C14.5104 11.6625 14.8479 11.1375 14.8479 10.575V9.8625H16.8354V10.5375C16.8354 11.1 17.1729 11.625 17.6604 11.85C17.8479 11.9625 17.9979 12.075 18.2604 12.2625C18.3729 12.3375 18.4854 12.45 18.5979 12.525C18.9729 12.825 19.4979 12.8625 19.9479 12.6375L20.8479 12.1125L21.5229 13.2375L20.6604 13.725C20.2104 14.0625 19.9479 14.5875 20.0604 15.1125Z" fill="#355130"/>
<path d="M5.47285 4.0875C4.72285 4.0875 4.08535 4.725 4.08535 5.475C4.08535 6.225 4.72285 6.8625 5.47285 6.8625C6.22285 6.8625 6.86035 6.225 6.86035 5.475C6.86035 4.725 6.26035 4.0875 5.47285 4.0875Z" fill="#355130"/>
<path d="M9.86035 8.9625L10.7979 7.3875C10.9104 7.1625 10.9479 6.9 10.9104 6.6375C10.8729 6.375 10.6854 6.1875 10.4604 6.075L9.78535 5.7375C9.78535 5.625 9.78535 5.55 9.78535 5.4375C9.78535 5.325 9.78535 5.25 9.78535 5.1375L10.4604 4.7625C10.8729 4.5375 11.0604 4.0125 10.8729 3.5625L9.86035 1.875C9.63535 1.5 9.11035 1.3125 8.69785 1.5L7.94785 1.9125C7.83535 1.8375 7.72285 1.725 7.61035 1.65V1.275C7.61035 0.5625 7.04785 0 6.33535 0H4.64785C3.93535 0 3.37285 0.5625 3.37285 1.275V1.65C3.26035 1.7625 3.14785 1.8375 3.03535 1.95L2.43535 1.6125C1.83535 1.275 1.31035 1.5375 1.08535 1.9125L0.147852 3.4875C0.035352 3.7125 -0.00214802 3.975 0.035352 4.2375C0.110352 4.5 0.260352 4.6875 0.485352 4.8L1.12285 5.175C1.12285 5.25 1.12285 5.3625 1.12285 5.475C1.12285 5.55 1.12285 5.6625 1.12285 5.7375L0.485352 6.1125C0.072852 6.3375 -0.114648 6.8625 0.072852 7.3125L1.04785 9C1.27285 9.4125 1.79785 9.5625 2.21035 9.375L2.96035 8.9625C3.07285 9.0375 3.18535 9.15 3.33535 9.225V9.675C3.33535 10.3875 3.89785 10.95 4.61035 10.95H6.29785C7.01035 10.95 7.57285 10.3875 7.57285 9.675V9.1875C7.68535 9.1125 7.79785 9 7.91035 8.925L8.51035 9.2625C9.07285 9.6 9.63535 9.375 9.86035 8.9625ZM7.16035 7.3875C7.08535 7.4625 7.01035 7.5 6.93535 7.575C6.78535 7.725 6.71035 7.7625 6.59785 7.8375C6.14785 8.0625 5.88535 8.475 5.88535 8.9625V9.2625H5.06035V8.9625C5.06035 8.475 4.76035 8.025 4.34785 7.8375C4.23535 7.8 4.16035 7.725 3.97285 7.575C3.89785 7.5 3.82285 7.4625 3.74785 7.3875C3.41035 7.0875 2.92285 7.05 2.51035 7.275L2.13535 7.5L1.98535 7.2L2.32285 7.0125C2.73535 6.7875 2.96035 6.3375 2.88535 5.8875C2.88535 5.7375 2.84785 5.5875 2.84785 5.4375C2.84785 5.2875 2.84785 5.1375 2.88535 5.025C2.96035 4.575 2.73535 4.0875 2.32285 3.8625L1.98535 3.675L2.17285 3.375L2.54785 3.6C2.96035 3.825 3.41035 3.7875 3.78535 3.4875C3.86035 3.4125 3.93535 3.375 3.97285 3.3C4.12285 3.15 4.23535 3.075 4.34785 3.0375C4.79785 2.8125 5.06035 2.4 5.06035 1.9125V1.725H5.88535V1.9125C5.88535 2.4 6.14785 2.85 6.59785 3.0375C6.71035 3.075 6.78535 3.15 6.93535 3.3C7.01035 3.375 7.08535 3.4125 7.16035 3.4875C7.49785 3.7875 7.98535 3.825 8.39785 3.6L8.77285 3.375L8.96035 3.675L8.62285 3.8625C8.21035 4.0875 7.98535 4.575 8.06035 5.025C8.09785 5.1375 8.09785 5.2875 8.09785 5.4375C8.09785 5.5875 8.09785 5.7 8.06035 5.85C7.98535 6.3375 8.21035 6.7875 8.62285 7.0125L8.92285 7.2L8.73535 7.5L8.36035 7.275C7.98535 7.05 7.49785 7.0875 7.16035 7.3875Z" fill="#355130"/>
</svg>
