<svg width="23" height="23" viewBox="0 0 23 23" fill="none" xmlns="http://www.w3.org/2000/svg">
<path d="M22.4264 21.0824L17.5514 16.2449C18.6764 14.8574 19.2389 13.2074 19.2389 11.4074C19.2389 8.74494 17.9264 5.96994 15.5264 3.60744C9.3014 -2.61756 1.57639 1.09494 1.50139 1.13244L1.27639 1.24494L1.12639 1.50744C1.08889 1.58244 -2.62361 9.26994 3.63889 15.4574C6.07639 17.8949 8.9264 19.1324 11.5139 19.1324C13.2764 19.1324 14.9264 18.5699 16.3514 17.4074L21.2264 22.2449C21.3764 22.3949 21.6014 22.5074 21.8264 22.5074C22.0514 22.5074 22.2764 22.4324 22.4264 22.2449C22.7639 21.9449 22.7639 21.4199 22.4264 21.0824ZM4.80139 14.2574C0.00139475 9.45744 1.98889 3.79494 2.51389 2.51994C3.82639 1.95744 9.52639 0.00744057 14.3639 4.80744C16.4264 6.86994 17.5514 9.19494 17.5514 11.4449C17.5514 12.7949 17.1389 14.0324 16.3139 15.0824L13.5764 12.3449V7.58244C13.5764 7.13244 13.2014 6.71994 12.7139 6.71994C12.2264 6.71994 11.8514 7.09494 11.8514 7.58244V10.6574L8.7764 7.58244C8.4389 7.24494 7.9139 7.24494 7.5764 7.58244C7.23889 7.91994 7.23889 8.44494 7.5764 8.78244L9.75139 10.9574H6.6764C6.2264 10.9574 5.81389 11.3324 5.81389 11.8199C5.81389 12.2699 6.1889 12.6824 6.6764 12.6824H11.4389L15.0764 16.2824C12.3389 18.3824 8.21389 17.6324 4.80139 14.2574Z" fill="#355130"/>
</svg>
