<svg width="159" height="24" viewBox="0 0 159 24" fill="none" xmlns="http://www.w3.org/2000/svg">
<path d="M42.0597 18.8226C41.8203 18.6252 41.6231 18.3432 41.44 17.9766C41.2568 17.61 41.1582 17.1589 41.1582 16.6231C41.1582 16.468 41.1582 16.2001 41.1723 15.8194C41.1723 15.4387 41.2005 15.044 41.2146 14.6351C41.2287 14.1698 41.2568 13.6481 41.2709 13.0842C41.2709 11.9985 41.1442 10.927 40.9047 9.89772C40.6653 8.85437 40.2286 7.92382 39.6229 7.12015C39.0172 6.30239 38.1862 5.65383 37.1438 5.14625C36.1015 4.65277 34.8056 4.39899 33.228 4.39899C31.0306 4.39899 29.2418 4.94886 27.8332 6.06271L29.3122 7.95201C30.2841 7.19065 31.58 6.80997 33.2139 6.80997C34.1999 6.80997 35.031 6.95096 35.7071 7.23295C36.3832 7.51494 36.9325 7.89562 37.3551 8.36089C37.7777 8.82617 38.1017 9.36195 38.3129 9.95412C38.5242 10.5463 38.6651 11.1526 38.7496 11.7729H38.4256C38.1017 11.2936 37.6932 10.8424 37.2283 10.4335C36.8339 10.1092 36.355 9.79902 35.7916 9.53114C35.2282 9.26325 34.5521 9.12226 33.7914 9.12226C32.5519 9.12226 31.4955 9.30555 30.6362 9.67213C29.777 10.0387 29.0727 10.5181 28.5234 11.0962C27.9741 11.6742 27.5797 12.3369 27.3261 13.0701C27.0726 13.8032 26.9458 14.5364 26.9458 15.2696C26.9458 16.0873 27.1007 16.891 27.3965 17.6805C27.6923 18.4701 28.1431 19.1751 28.7206 19.8095C29.2981 20.444 30.0165 20.9516 30.8757 21.3464C31.7349 21.7411 32.7068 21.9244 33.8196 21.9244C34.6084 21.9244 35.2986 21.8116 35.862 21.572C36.4255 21.3323 36.9044 21.0644 37.3129 20.7401C37.7213 20.4158 38.0453 20.1056 38.2989 19.7954C38.5524 19.4853 38.7637 19.2456 38.9468 19.0623H39.2989C39.5102 19.4571 39.7497 19.7954 40.0314 20.0915C40.299 20.3876 40.5807 20.6555 40.8765 20.8811C41.1723 21.1067 41.454 21.29 41.7358 21.431C42.0175 21.5719 42.271 21.6847 42.5105 21.7411L43.0598 19.3725C43.0598 19.3725 42.9049 19.302 42.6936 19.2315C42.4823 19.161 42.271 19.0059 42.0316 18.8085L42.0597 18.8226ZM38.4256 16.7641C38.2848 17.2294 38.0171 17.6664 37.6509 18.0753C37.2847 18.4842 36.7917 18.8226 36.1719 19.0905C35.5521 19.3584 34.7774 19.4994 33.8478 19.4994C33.1294 19.4994 32.4815 19.3725 31.9321 19.1328C31.3687 18.8931 30.9039 18.5688 30.5376 18.174C30.1714 17.7792 29.8897 17.3281 29.6925 16.8205C29.4953 16.3129 29.3967 15.8053 29.3967 15.2696C29.3967 14.5364 29.5517 13.916 29.8756 13.4366C30.1996 12.9573 30.594 12.5625 31.0588 12.2805C31.5236 11.9985 32.0026 11.8011 32.5096 11.7024C33.0167 11.5896 33.4534 11.5473 33.8196 11.5473C34.5521 11.5473 35.2282 11.6601 35.8339 11.8998C36.4395 12.1254 36.9466 12.4356 37.3692 12.8022C37.7918 13.1688 38.1017 13.5917 38.327 14.0711C38.5524 14.5505 38.6651 15.0299 38.6651 15.5092C38.6651 15.8758 38.5947 16.2988 38.4397 16.7641H38.4256Z" fill="#355130"/>
<path d="M58.385 13.4225C57.892 13.0842 57.3426 12.8163 56.7229 12.6189C56.1172 12.4215 55.4974 12.2805 54.8917 12.1818C54.286 12.0831 53.6944 12.0267 53.1451 11.9985C52.5958 11.9703 52.1168 11.9421 51.7365 11.928C50.666 11.8857 49.7927 11.8152 49.1307 11.6883C48.4546 11.5755 47.9475 11.4204 47.5672 11.2231C47.2009 11.0257 46.9474 10.786 46.8206 10.4899C46.6939 10.1938 46.6375 9.86952 46.6375 9.50294C46.6375 8.88257 46.8206 8.38909 47.1728 8.03661C47.5249 7.68413 47.9616 7.40214 48.4546 7.20475C48.9476 7.00736 49.4687 6.89457 50.0181 6.83817C50.5674 6.78177 51.0041 6.76767 51.3562 6.76767C52.3845 6.76767 53.2437 6.89457 53.948 7.14835C54.6523 7.40214 55.2157 7.68413 55.6523 7.99431C56.089 8.3045 56.3989 8.58648 56.582 8.85437C56.7651 9.12226 56.8637 9.26325 56.8919 9.27735L59.0188 8.1635C59.0188 8.1635 58.8498 7.90972 58.5822 7.50084C58.3145 7.09196 57.8779 6.66898 57.2863 6.2037C56.6947 5.73842 55.9059 5.31544 54.9481 4.93476C53.9762 4.55408 52.7789 4.37079 51.3703 4.37079C50.0744 4.37079 48.9617 4.52588 48.0461 4.82197C47.1305 5.11805 46.3981 5.51283 45.8487 6.00631C45.2994 6.49979 44.8909 7.03556 44.6374 7.65593C44.3838 8.2622 44.257 8.88257 44.257 9.50294C44.257 10.645 44.5247 11.5473 45.0458 12.1818C45.567 12.8304 46.215 13.2957 46.9897 13.6058C47.7503 13.916 48.5673 14.1134 49.4265 14.1839C50.2857 14.2544 51.0323 14.3108 51.6661 14.3249C53.1592 14.3672 54.3142 14.48 55.1171 14.6774C55.92 14.8748 56.5116 15.0863 56.8919 15.326C57.2722 15.5656 57.4835 15.7912 57.5539 16.0309C57.6103 16.2706 57.6384 16.4398 57.6384 16.5526C57.6384 16.8205 57.6103 17.1166 57.5539 17.4268C57.4976 17.7369 57.2863 18.0189 56.9341 18.2868C56.5679 18.5547 56.0045 18.7662 55.2439 18.9495C54.4692 19.1187 53.3846 19.2174 51.9619 19.2174C50.7505 19.2174 49.7786 19.0623 49.0321 18.7662C48.2855 18.4701 47.6939 18.1317 47.2714 17.7651C46.8488 17.3986 46.553 17.0461 46.3981 16.7359C46.2431 16.4116 46.1586 16.2424 46.1586 16.2283L43.8345 16.8769C43.8345 16.8769 43.8767 17.0602 43.9753 17.2999C44.0739 17.5395 44.243 17.8356 44.4683 18.1881C44.7078 18.5406 45.0177 18.9213 45.398 19.3302C45.7924 19.739 46.2854 20.1197 46.8911 20.4581C47.4967 20.7965 48.2151 21.0785 49.0462 21.3041C49.8772 21.5297 50.8491 21.6424 51.9619 21.6424C52.3704 21.6424 52.8493 21.6424 53.3986 21.6142C53.948 21.6001 54.5255 21.5438 55.1312 21.4592C55.7369 21.3746 56.3285 21.2195 56.906 21.0221C57.4835 20.8106 58.0187 20.5286 58.4836 20.162C58.9484 19.7954 59.3287 19.3161 59.6245 18.738C59.9203 18.1599 60.0612 17.4409 60.0612 16.609C60.0612 15.8899 59.9062 15.2696 59.6104 14.762C59.3146 14.2544 58.9061 13.8173 58.4131 13.4789L58.385 13.4225Z" fill="#355130"/>
<path d="M69.4563 17.5818C69.4563 17.5818 69.3999 17.6664 69.3436 17.7933C69.2872 17.9061 69.1886 18.033 69.0619 18.174C68.9351 18.315 68.7802 18.4278 68.597 18.5265C68.4139 18.6252 68.1886 18.6675 67.935 18.6675C67.6392 18.6675 67.3575 18.6252 67.0758 18.5265C66.7941 18.4278 66.5405 18.2304 66.3292 17.9484C66.118 17.6523 65.9348 17.2434 65.8081 16.7218C65.6672 16.2001 65.5968 15.5233 65.5968 14.6774V7.50081H70.0479V5.07573H65.5968V1.69189H63.174V5.07573H60.7231V7.50081H63.174V14.6774C63.174 15.6361 63.2726 16.4962 63.4558 17.2857C63.6389 18.0753 63.9347 18.7521 64.3291 19.316C64.7235 19.88 65.2165 20.3171 65.8081 20.6273C66.3997 20.9375 67.104 21.0925 67.9209 21.0925C68.4703 21.0925 68.9492 20.9939 69.3717 20.8106C69.7943 20.6273 70.1605 20.4017 70.4845 20.1338C70.7944 19.8659 71.0479 19.5839 71.2451 19.2878C71.4423 18.9918 71.5832 18.7239 71.6818 18.4842L69.4422 17.61V17.5818H69.4563Z" fill="#355130"/>
<path d="M87.0354 9.51704C86.8664 8.88257 86.6269 8.2622 86.317 7.65593C86.0071 7.04966 85.5987 6.49978 85.0916 6.02041C84.5845 5.54103 83.9647 5.16035 83.2323 4.85017C82.4998 4.55408 81.6265 4.39899 80.6123 4.39899C79.4996 4.39899 78.5277 4.55408 77.6966 4.86426C76.8655 5.17445 76.1472 5.58333 75.5556 6.07681C74.964 6.57028 74.471 7.13425 74.0907 7.76872C73.6963 8.40319 73.4005 9.03766 73.1751 9.67213C72.9497 10.3207 72.7948 10.927 72.7103 11.5191C72.6258 12.1113 72.5835 12.633 72.5835 13.0842C72.5835 15.904 73.2737 18.0612 74.6541 19.5416C76.0345 21.0221 78.0206 21.7693 80.6264 21.7693C81.0772 21.7693 81.5561 21.727 82.0632 21.6424C82.5702 21.5579 83.0914 21.4028 83.6126 21.2054C84.1197 20.9939 84.6267 20.7401 85.1057 20.4299C85.5846 20.1197 86.0212 19.7249 86.3875 19.2597L84.5 17.7087C84.2605 18.0048 83.9929 18.2445 83.683 18.456C83.3731 18.6675 83.0351 18.8226 82.697 18.9495C82.3449 19.0764 81.9927 19.1751 81.6547 19.2456C81.3025 19.3161 80.9645 19.3443 80.6405 19.3443C78.8798 19.3443 77.5276 18.9213 76.6261 18.0612C75.7105 17.2012 75.1893 15.8617 75.0485 14.0429H87.4861V12.8163C87.4861 12.3933 87.458 11.8857 87.4016 11.3217C87.3453 10.7578 87.2326 10.1515 87.0636 9.51704H87.0354ZM75.0907 11.6319C75.1893 11.0116 75.3443 10.4194 75.5697 9.84132C75.795 9.26325 76.119 8.75567 76.5416 8.3045C76.9641 7.85332 77.5135 7.50084 78.1755 7.21885C78.8375 6.95096 79.6545 6.80997 80.6264 6.80997C81.4152 6.80997 82.0913 6.95096 82.6266 7.24705C83.1618 7.54313 83.5985 7.92381 83.9225 8.38909C84.2464 8.85437 84.5 9.37604 84.669 9.95412C84.838 10.5322 84.9507 11.0821 85.0071 11.6319H75.1048H75.0907Z" fill="#355130"/>
<path d="M114.601 13.4225C114.108 13.0842 113.559 12.8163 112.939 12.6189C112.333 12.4215 111.714 12.2805 111.108 12.1818C110.502 12.0831 109.911 12.0267 109.361 11.9985C108.812 11.9703 108.333 11.9421 107.953 11.928C106.882 11.8857 106.009 11.8152 105.347 11.6883C104.671 11.5755 104.164 11.4204 103.783 11.2231C103.417 11.0257 103.164 10.786 103.037 10.4899C102.91 10.1938 102.854 9.86952 102.854 9.50294C102.854 8.88257 103.037 8.38909 103.389 8.03661C103.741 7.68413 104.178 7.40214 104.671 7.20475C105.164 7.00736 105.685 6.89457 106.234 6.83817C106.784 6.78177 107.22 6.76767 107.573 6.76767C108.601 6.76767 109.46 6.89457 110.164 7.14835C110.869 7.40214 111.432 7.68413 111.869 7.99431C112.305 8.3045 112.615 8.58648 112.798 8.85437C112.981 9.12226 113.08 9.26325 113.108 9.27735L115.235 8.1635C115.235 8.1635 115.066 7.90972 114.798 7.50084C114.531 7.09196 114.094 6.66898 113.503 6.2037C112.911 5.73842 112.122 5.31544 111.164 4.93476C110.192 4.55408 108.995 4.37079 107.587 4.37079C106.291 4.37079 105.178 4.52588 104.262 4.82197C103.347 5.11805 102.614 5.51283 102.065 6.00631C101.516 6.49979 101.107 7.03556 100.854 7.65593C100.6 8.2622 100.473 8.88257 100.473 9.50294C100.473 10.645 100.741 11.5473 101.262 12.1818C101.783 12.8304 102.431 13.2957 103.206 13.6058C103.967 13.916 104.784 14.1134 105.643 14.1839C106.502 14.2544 107.249 14.3108 107.882 14.3249C109.375 14.3672 110.531 14.48 111.333 14.6774C112.136 14.8748 112.728 15.0863 113.108 15.326C113.489 15.5656 113.7 15.7912 113.77 16.0309C113.827 16.2706 113.855 16.4398 113.855 16.5526C113.855 16.8205 113.827 17.1166 113.77 17.4268C113.714 17.7369 113.503 18.0189 113.15 18.2868C112.784 18.5547 112.221 18.7662 111.46 18.9495C110.685 19.1187 109.601 19.2174 108.178 19.2174C106.967 19.2174 105.995 19.0623 105.248 18.7662C104.502 18.4701 103.91 18.1317 103.488 17.7651C103.065 17.3986 102.769 17.0461 102.614 16.7359C102.459 16.4116 102.375 16.2424 102.375 16.2283L100.051 16.8769C100.051 16.8769 100.093 17.0602 100.192 17.2999C100.29 17.5395 100.459 17.8356 100.685 18.1881C100.924 18.5406 101.234 18.9213 101.614 19.3302C102.009 19.739 102.502 20.1197 103.107 20.4581C103.713 20.7965 104.431 21.0785 105.262 21.3041C106.094 21.5297 107.065 21.6424 108.178 21.6424C108.587 21.6424 109.066 21.6424 109.615 21.6142C110.164 21.6001 110.742 21.5438 111.347 21.4592C111.953 21.3746 112.545 21.2195 113.122 21.0221C113.7 20.8106 114.235 20.5286 114.7 20.162C115.165 19.7954 115.545 19.3161 115.841 18.738C116.137 18.1599 116.277 17.4409 116.277 16.609C116.277 15.8899 116.123 15.2696 115.827 14.762C115.531 14.2544 115.122 13.8173 114.629 13.4789L114.601 13.4225Z" fill="#355130"/>
<path d="M132.617 18.8226C132.377 18.6252 132.18 18.3432 131.997 17.9766C131.814 17.61 131.715 17.1589 131.715 16.6231C131.715 16.468 131.715 16.2001 131.729 15.8194C131.729 15.4387 131.758 15.044 131.772 14.6351C131.786 14.1698 131.814 13.6481 131.828 13.0842C131.828 11.9985 131.701 10.927 131.462 9.89772C131.222 8.85437 130.786 7.92382 130.18 7.12015C129.574 6.30239 128.743 5.65383 127.701 5.14625C126.659 4.65277 125.363 4.39899 123.785 4.39899C121.588 4.39899 119.799 4.94886 118.39 6.06271L119.869 7.95201C120.841 7.19065 122.137 6.80997 123.771 6.80997C124.757 6.80997 125.588 6.95096 126.264 7.23295C126.94 7.51494 127.49 7.89562 127.912 8.36089C128.335 8.82617 128.659 9.36195 128.87 9.95412C129.081 10.5463 129.222 11.1526 129.307 11.7729H128.983C128.659 11.2936 128.25 10.8424 127.785 10.4335C127.391 10.1092 126.912 9.79902 126.349 9.53114C125.785 9.26325 125.109 9.12226 124.349 9.12226C123.109 9.12226 122.053 9.30555 121.193 9.67213C120.334 10.0387 119.63 10.5181 119.081 11.0962C118.531 11.6742 118.137 12.3369 117.883 13.0701C117.63 13.8032 117.503 14.5364 117.503 15.2696C117.503 16.0873 117.658 16.891 117.954 17.6805C118.249 18.4701 118.7 19.1751 119.278 19.8095C119.855 20.444 120.574 20.9516 121.433 21.3464C122.292 21.7411 123.264 21.9244 124.377 21.9244C125.166 21.9244 125.856 21.8116 126.419 21.572C126.983 21.3323 127.462 21.0644 127.87 20.7401C128.278 20.4158 128.602 20.1056 128.856 19.7954C129.11 19.4853 129.321 19.2456 129.504 19.0623H129.856C130.067 19.4571 130.307 19.7954 130.589 20.0915C130.856 20.3876 131.138 20.6555 131.434 20.8811C131.729 21.1067 132.011 21.29 132.293 21.431C132.575 21.5719 132.828 21.6847 133.068 21.7411L133.617 19.3725C133.617 19.3725 133.462 19.302 133.251 19.2315C133.039 19.161 132.828 19.0059 132.589 18.8085L132.617 18.8226ZM128.983 16.7641C128.842 17.2294 128.574 17.6664 128.208 18.0753C127.842 18.4842 127.349 18.8226 126.729 19.0905C126.109 19.3584 125.335 19.4994 124.405 19.4994C123.687 19.4994 123.039 19.3725 122.489 19.1328C121.926 18.8931 121.461 18.5688 121.095 18.174C120.729 17.7792 120.447 17.3281 120.25 16.8205C120.052 16.3129 119.954 15.8053 119.954 15.2696C119.954 14.5364 120.109 13.916 120.433 13.4366C120.757 12.9573 121.151 12.5625 121.616 12.2805C122.081 11.9985 122.56 11.8011 123.067 11.7024C123.574 11.5896 124.011 11.5473 124.377 11.5473C125.109 11.5473 125.785 11.6601 126.391 11.8998C126.997 12.1254 127.504 12.4356 127.926 12.8022C128.349 13.1688 128.659 13.5917 128.884 14.0711C129.11 14.5505 129.222 15.0299 129.222 15.5092C129.222 15.8758 129.152 16.2988 128.997 16.7641H128.983Z" fill="#355130"/>
<path d="M138.251 3.27104C138.364 3.01725 138.518 2.81986 138.716 2.66477C138.913 2.50968 139.209 2.43918 139.575 2.43918C139.843 2.43918 140.068 2.49558 140.251 2.59427C140.42 2.70707 140.575 2.81986 140.716 2.96086C140.857 3.13005 140.969 3.31334 141.068 3.51073L143.336 2.60837C143.237 2.36868 143.082 2.1149 142.885 1.80471C142.674 1.50863 142.42 1.22664 142.11 0.958753C141.8 0.690866 141.434 0.479377 141.012 0.281986C140.589 0.0986952 140.11 0 139.575 0C138.687 0 137.969 0.155092 137.434 0.479377C136.899 0.803661 136.49 1.21254 136.208 1.70602C135.927 2.19949 135.744 2.74937 135.673 3.34154C135.603 3.93371 135.56 4.51178 135.56 5.07575H133.236V7.50083H135.56V21.0926H137.983V7.48674H142.941V5.06165H137.983C137.983 4.75147 137.997 4.44128 138.04 4.117C138.082 3.79272 138.152 3.51073 138.265 3.25694L138.251 3.27104Z" fill="#355130"/>
<path d="M158.323 12.8304C158.323 12.4074 158.295 11.8998 158.238 11.3358C158.182 10.7719 158.069 10.1656 157.9 9.53114C157.731 8.89667 157.492 8.2763 157.182 7.67003C156.872 7.06376 156.463 6.51388 155.956 6.03451C155.449 5.55513 154.829 5.17445 154.097 4.86426C153.365 4.56818 152.491 4.41309 151.477 4.41309C150.364 4.41309 149.392 4.56818 148.561 4.87836C147.73 5.18855 147.012 5.59743 146.42 6.0909C145.829 6.58438 145.336 7.14835 144.955 7.78282C144.561 8.41729 144.265 9.05176 144.04 9.68623C143.814 10.3348 143.66 10.9411 143.575 11.5332C143.491 12.1254 143.448 12.6471 143.448 13.0983C143.448 15.9181 144.138 18.0753 145.519 19.5557C146.899 21.0362 148.885 21.7834 151.491 21.7834C151.942 21.7834 152.421 21.7411 152.928 21.6565C153.435 21.5719 153.956 21.4169 154.477 21.2195C154.984 21.008 155.492 20.7542 155.97 20.444C156.449 20.1338 156.886 19.739 157.252 19.2738L155.365 17.7228C155.125 18.0189 154.858 18.2586 154.548 18.4701C154.238 18.6816 153.9 18.8367 153.562 18.9636C153.21 19.0905 152.857 19.1892 152.519 19.2597C152.167 19.3302 151.829 19.3584 151.505 19.3584C149.745 19.3584 148.392 18.9354 147.491 18.0753C146.575 17.2153 146.054 15.8758 145.913 14.057H158.351V12.8304H158.323ZM145.956 11.6319C146.054 11.0116 146.209 10.4194 146.434 9.84132C146.66 9.26325 146.984 8.75567 147.406 8.3045C147.829 7.85332 148.378 7.50084 149.04 7.21885C149.702 6.95096 150.519 6.80997 151.491 6.80997C152.28 6.80997 152.956 6.95096 153.491 7.24705C154.027 7.54313 154.463 7.92381 154.787 8.38909C155.111 8.85437 155.365 9.37604 155.534 9.95412C155.703 10.5322 155.815 11.0821 155.872 11.6319H145.97H145.956Z" fill="#355130"/>
<path d="M20.227 3.72222C21.4243 4.117 22.0018 5.63973 22.4385 7.20475L24.9316 6.51388C24.5372 5.10395 23.7203 2.15719 21.0017 1.25484C19.7059 0.874157 18.4522 1.12795 17.5367 1.93161C16.6211 2.73527 16.2126 3.94781 16.4239 5.24494C16.5366 6.1191 16.8887 6.90866 17.1423 7.48673C18.41 10.363 19.8467 13.2252 21.4102 15.9745C21.9737 16.9615 22.4526 17.892 22.2554 18.597C22.0441 19.3443 20.9595 19.7108 20.1284 19.5698C18.9875 19.3866 17.9451 18.5688 17.0014 17.7087C16.7197 17.4549 16.4521 17.2012 16.1704 16.9333C16.6634 12.8586 15.9168 8.65698 14.0434 5.01936C13.4941 3.96191 12.5926 2.46738 11.0432 1.73422C10.0994 1.28304 8.95849 1.22664 7.97249 1.59322C7.12735 1.88931 6.47941 2.48148 6.12727 3.22874C5.43707 4.70917 6.0991 6.33059 6.38081 7.02146C8.02883 11.0116 10.4375 14.7056 13.4236 17.8356C13.0997 19.3584 12.2968 20.9516 10.8882 21.1208C9.76137 21.2336 8.66269 20.2607 7.93023 19.4289C3.98625 14.903 3.16928 8.75567 2.57768 1.77651L0 2.0021C0.492999 7.74052 1.16911 15.6079 5.98641 21.1208C7.47949 22.8268 9.09935 23.7009 10.7192 23.7009C10.8741 23.7009 11.015 23.7009 11.1699 23.6727C13.4096 23.4049 14.79 21.7552 15.5224 19.8377C16.6634 20.8388 18.0297 21.8257 19.7059 22.1077C21.6779 22.432 24.1006 21.4733 24.7344 19.302C25.2556 17.4972 24.2978 15.8053 23.6639 14.6774C22.1427 11.9985 20.7482 9.22095 19.5087 6.41519C19.2551 5.82302 19.0438 5.34364 18.9734 4.83606C18.903 4.39899 19.0016 4.0465 19.241 3.83501C19.4805 3.62352 19.8608 3.58123 20.2411 3.69402L20.227 3.72222ZM8.76129 6.03451C8.53592 5.49873 8.26829 4.73737 8.4514 4.32849C8.52183 4.1593 8.70495 4.0747 8.83172 4.0183C8.97257 3.96191 9.1416 3.93371 9.31063 3.93371C9.52192 3.93371 9.74729 3.97601 9.9304 4.0606C10.5783 4.37079 11.1277 5.01936 11.7334 6.1896C13.0152 8.68518 13.6913 11.4768 13.7194 14.2826C11.6629 11.787 9.97266 8.99536 8.7472 6.00631L8.76129 6.03451Z" fill="#355130"/>
</svg>
