<svg width="136" height="69" viewBox="0 0 136 69" fill="none" xmlns="http://www.w3.org/2000/svg">
<path d="M65.3627 27.5818C64.99 27.2662 64.6747 26.8357 64.388 26.2618C64.1013 25.6879 63.958 24.9992 63.958 24.167C63.958 23.9375 63.958 23.5071 63.958 22.9332C63.958 22.3305 63.9867 21.7279 64.0153 21.0966C64.044 20.3792 64.0727 19.5757 64.1013 18.6862C64.1013 16.9931 63.9007 15.3288 63.528 13.7219C63.1553 12.1149 62.4959 10.6514 61.5212 9.38884C60.5752 8.12624 59.2851 7.09318 57.6797 6.3184C56.0743 5.54362 54.0389 5.17059 51.6022 5.17059C48.1907 5.17059 45.4099 6.03144 43.2312 7.75318L45.5533 10.7088C47.0727 9.5323 49.0794 8.9297 51.6308 8.9297C53.1789 8.9297 54.469 9.15926 55.501 9.58969C56.533 10.0201 57.3931 10.6227 58.0524 11.3401C58.7118 12.0575 59.2278 12.8897 59.5432 13.8079C59.8872 14.7262 60.0878 15.6732 60.2312 16.6488H59.7438C59.2278 15.9027 58.6258 15.1853 57.8804 14.554C57.2784 14.0375 56.533 13.5784 55.6443 13.148C54.7556 12.7175 53.7236 12.5166 52.5482 12.5166C50.6275 12.5166 48.9647 12.8036 47.646 13.3775C46.2986 13.9514 45.2093 14.6975 44.3492 15.5871C43.4892 16.4766 42.8871 17.5097 42.4858 18.6575C42.0844 19.8053 41.8838 20.9245 41.8838 22.0723C41.8838 23.3349 42.1131 24.5975 42.5718 25.8027C43.0305 27.0366 43.7185 28.127 44.6359 29.1027C45.5532 30.0783 46.6713 30.8818 47.99 31.4844C49.3087 32.087 50.8568 32.4027 52.5769 32.4027C53.8096 32.4027 54.8703 32.2305 55.759 31.8575C56.6477 31.4844 57.393 31.054 58.0237 30.5661C58.6544 30.0783 59.1705 29.5905 59.5718 29.1027C59.9732 28.6149 60.2885 28.2418 60.5752 27.9549H61.1199C61.4639 28.5575 61.8366 29.1027 62.2666 29.5618C62.6966 30.0209 63.1266 30.4514 63.5853 30.7957C64.044 31.1401 64.474 31.427 64.9327 31.6566C65.3627 31.8861 65.764 32.0296 66.1367 32.1444L66.9968 28.4714C66.9968 28.4714 66.7388 28.3566 66.4234 28.2418C66.1081 28.127 65.7641 27.8975 65.3914 27.5818H65.3627ZM59.7152 24.3966C59.4858 25.114 59.0845 25.8027 58.5111 26.434C57.9378 27.0653 57.1637 27.6105 56.189 28.0122C55.2143 28.4427 54.0103 28.6435 52.5769 28.6435C51.4588 28.6435 50.4555 28.4427 49.5954 28.0696C48.7067 27.6966 47.99 27.1801 47.4167 26.5775C46.8433 25.9462 46.4133 25.2575 46.098 24.4827C45.7826 23.7079 45.6393 22.9044 45.6393 22.0723C45.6393 20.9245 45.8973 19.9775 46.3846 19.2027C46.872 18.4279 47.5027 17.854 48.2193 17.4236C48.936 16.9931 49.7101 16.6775 50.4841 16.5053C51.2582 16.3332 51.9462 16.2471 52.5195 16.2471C53.6662 16.2471 54.6983 16.4193 55.6443 16.7923C56.5904 17.1653 57.3644 17.6244 58.0237 18.1984C58.6831 18.7723 59.1705 19.4323 59.5145 20.1784C59.8585 20.9244 60.0305 21.6705 60.0305 22.4166C60.0305 22.9905 59.9158 23.6505 59.6865 24.3679L59.7152 24.3966Z" fill="#F9F9F9"/>
<path d="M90.7335 19.2025C89.9594 18.686 89.0994 18.2555 88.1534 17.9686C87.2074 17.6529 86.2613 17.4521 85.2866 17.2799C84.3406 17.1364 83.4232 17.0216 82.5632 16.9929C81.7032 16.9355 80.9578 16.9069 80.3558 16.8782C78.693 16.8208 77.3456 16.706 76.3136 16.5051C75.2815 16.3329 74.4502 16.0747 73.8768 15.7877C73.3035 15.5008 72.9308 15.0991 72.7301 14.6399C72.5294 14.1808 72.4435 13.6642 72.4435 13.0903C72.4435 12.1147 72.7301 11.3686 73.2748 10.7947C73.8195 10.2495 74.5075 9.81904 75.2815 9.50339C76.0556 9.21644 76.8583 9.01558 77.7183 8.92949C78.5784 8.8434 79.2664 8.81468 79.8111 8.81468C81.4165 8.81468 82.7639 9.01557 83.8532 9.41731C84.9426 9.81905 85.8313 10.2495 86.4907 10.7373C87.1787 11.2251 87.666 11.6556 87.9527 12.086C88.2394 12.4878 88.4114 12.7173 88.44 12.746L91.7369 11.0243C91.7369 11.0243 91.4788 10.6225 91.0488 9.99121C90.6188 9.35991 89.9595 8.69992 89.0421 7.98253C88.1247 7.26514 86.892 6.60514 85.4013 6.00253C83.8819 5.39992 82.0471 5.11298 79.8397 5.11298C77.8043 5.11298 76.0843 5.34256 74.6795 5.80169C73.2461 6.26081 72.1281 6.89211 71.2681 7.6382C70.408 8.38428 69.7773 9.24515 69.376 10.1921C68.9746 11.1391 68.7739 12.1147 68.7739 13.0617C68.7739 14.8408 69.1753 16.2469 70.0067 17.2225C70.8094 18.2268 71.8128 18.9729 73.0168 19.4321C74.2208 19.9199 75.4822 20.2068 76.8009 20.3503C78.1196 20.4651 79.295 20.5512 80.2984 20.5799C82.6205 20.6373 84.4266 20.8094 85.6593 21.1251C86.892 21.4408 87.838 21.7564 88.4114 22.1295C89.0134 22.5025 89.3288 22.8468 89.4434 23.2199C89.5294 23.5929 89.5868 23.8512 89.5868 24.0233C89.5868 24.4538 89.5294 24.9129 89.4434 25.372C89.3574 25.8599 89.0134 26.2903 88.4687 26.7207C87.8954 27.1225 87.0354 27.4668 85.8313 27.7538C84.6273 28.012 82.9359 28.1555 80.7284 28.1555C78.865 28.1555 77.3456 27.9259 76.1702 27.4668C74.9949 27.0077 74.1062 26.4625 73.4181 25.8886C72.7588 25.3147 72.3001 24.7695 72.0708 24.2816C71.8414 23.7938 71.6981 23.5068 71.6981 23.4781L68.0859 24.4825C68.0859 24.4825 68.1719 24.7694 68.3153 25.1425C68.4586 25.5155 68.7166 25.9747 69.0893 26.5199C69.462 27.0651 69.9207 27.6677 70.5514 28.299C71.1534 28.9303 71.9274 29.5042 72.8735 30.0494C73.8195 30.5659 74.9375 31.025 76.2276 31.3694C77.5176 31.7137 79.037 31.8859 80.7571 31.8859C81.3878 31.8859 82.1331 31.8859 82.9932 31.8285C83.8532 31.7998 84.7419 31.7138 85.688 31.5703C86.634 31.4268 87.5513 31.1972 88.44 30.8816C89.3574 30.5659 90.1601 30.1068 90.8768 29.5329C91.5935 28.959 92.1955 28.2129 92.6542 27.3234C93.1129 26.4051 93.3423 25.3146 93.3423 24.0233C93.3423 22.9042 93.1129 21.9573 92.6256 21.1538C92.1669 20.3503 91.5362 19.6903 90.7622 19.1451L90.7335 19.2025Z" fill="#F9F9F9"/>
<path d="M107.992 25.6589C107.992 25.6589 107.906 25.8024 107.82 25.9746C107.734 26.1467 107.59 26.3476 107.39 26.5771C107.189 26.778 106.96 26.9789 106.673 27.1224C106.386 27.2658 106.042 27.3519 105.641 27.3519C105.182 27.3519 104.752 27.2658 104.294 27.1224C103.835 26.9789 103.462 26.6633 103.147 26.2041C102.803 25.745 102.545 25.1137 102.344 24.3102C102.143 23.5067 102.029 22.445 102.029 21.125V9.96243H108.966V6.20332H102.029V0.952026H98.2733V6.20332H94.4604V9.96243H98.2733V21.125C98.2733 22.6172 98.4166 23.9659 98.7033 25.1711C98.9899 26.405 99.4486 27.438 100.051 28.3276C100.681 29.2171 101.427 29.8771 102.373 30.365C103.29 30.8528 104.38 31.0824 105.67 31.0824C106.501 31.0824 107.275 30.9389 107.934 30.6519C108.594 30.3649 109.167 30.0206 109.654 29.6189C110.142 29.2171 110.543 28.7867 110.83 28.2989C111.145 27.8398 111.346 27.4093 111.518 27.065L108.02 25.7163V25.6589H107.992Z" fill="#F9F9F9"/>
<path d="M135.312 13.1189C135.054 12.1432 134.681 11.1676 134.194 10.2206C133.707 9.27368 133.076 8.4128 132.302 7.69541C131.528 6.97802 130.553 6.34675 129.406 5.88762C128.26 5.42849 126.912 5.19891 125.336 5.19891C123.616 5.19891 122.096 5.42848 120.806 5.9163C119.516 6.40413 118.398 7.03544 117.481 7.81022C116.563 8.585 115.789 9.44586 115.187 10.4502C114.585 11.4259 114.098 12.4302 113.754 13.4058C113.41 14.4102 113.152 15.3571 113.037 16.2754C112.922 17.1937 112.836 17.9972 112.836 18.7145C112.836 23.105 113.897 26.4336 116.047 28.758C118.197 31.0823 121.293 32.2301 125.336 32.2301C126.024 32.2301 126.769 32.1728 127.572 32.0293C128.374 31.8858 129.177 31.6562 129.98 31.3406C130.782 31.0249 131.556 30.6232 132.302 30.1354C133.047 29.6475 133.735 29.0449 134.309 28.3275L131.356 25.9171C130.983 26.3762 130.582 26.7493 130.094 27.0649C129.607 27.3806 129.091 27.6388 128.546 27.8397C128.002 28.0406 127.457 28.1841 126.912 28.2988C126.368 28.4136 125.852 28.471 125.336 28.471C122.583 28.471 120.491 27.811 119.086 26.4623C117.653 25.1423 116.85 23.0475 116.649 20.2067H136V18.3128C136 17.6528 135.943 16.878 135.857 15.9884C135.771 15.0989 135.599 14.1519 135.341 13.1763L135.312 13.1189ZM116.707 16.4189C116.85 15.4432 117.108 14.525 117.452 13.6354C117.796 12.7459 118.312 11.9424 118.971 11.2537C119.631 10.565 120.491 9.99107 121.494 9.58933C122.526 9.1589 123.787 8.95802 125.307 8.95802C126.54 8.95802 127.572 9.1876 128.403 9.64673C129.234 10.1059 129.894 10.6798 130.41 11.4258C130.926 12.1432 131.298 12.9467 131.556 13.865C131.815 14.7832 131.986 15.6154 132.072 16.4763H116.678L116.707 16.4189Z" fill="#F9F9F9"/>
<path d="M22.6475 55.2441C21.8735 54.7276 21.0135 54.2972 20.0675 54.0102C19.1214 53.6945 18.1754 53.4937 17.2007 53.3215C16.2546 53.1781 15.3373 53.0633 14.4772 53.0346C13.6172 52.9772 12.8718 52.9485 12.2698 52.9198C10.6071 52.8624 9.25968 52.7476 8.22764 52.5467C7.1956 52.3746 6.36426 52.1163 5.79091 51.8294C5.21755 51.5424 4.84484 51.1407 4.64417 50.6815C4.44349 50.2224 4.35752 49.7059 4.35752 49.132C4.35752 48.1563 4.64418 47.4102 5.18886 46.8363C5.73355 46.2911 6.42157 45.8607 7.1956 45.545C7.96963 45.2581 8.77235 45.0572 9.63238 44.9711C10.4924 44.885 11.1804 44.8564 11.7251 44.8564C13.3305 44.8564 14.6779 45.0572 15.7673 45.4589C16.8567 45.8607 17.7454 46.2911 18.4047 46.779C19.0927 47.2668 19.5801 47.6972 19.8668 48.1276C20.1534 48.5294 20.3254 48.7589 20.3541 48.7876L23.6509 47.0659C23.6509 47.0659 23.3929 46.6641 22.9629 46.0328C22.5329 45.4015 21.8735 44.7415 20.9562 44.0242C20.0388 43.3068 18.8061 42.6468 17.3153 42.0442C15.7959 41.4416 13.9612 41.1546 11.7538 41.1546C9.71836 41.1546 7.99832 41.3842 6.5936 41.8433C5.16021 42.3024 4.04216 42.9337 3.18213 43.6798C2.32209 44.4259 1.69139 45.2868 1.29004 46.2337C0.888693 47.1807 0.687999 48.1563 0.687999 49.1033C0.687999 50.8824 1.08937 52.2885 1.92074 53.2641C2.72344 54.2685 3.72682 55.0146 4.93086 55.4737C6.13491 55.9615 7.39627 56.2485 8.71499 56.3919C10.0337 56.5067 11.2091 56.5928 12.2125 56.6215C14.5346 56.6789 16.3407 56.8511 17.5734 57.1667C18.8061 57.4824 19.7521 57.798 20.3255 58.1711C20.9275 58.5441 21.2428 58.8884 21.3575 59.2615C21.4435 59.6345 21.5008 59.8928 21.5008 60.065C21.5008 60.4954 21.4435 60.9545 21.3575 61.4137C21.2715 61.9015 20.9275 62.3319 20.3828 62.7624C19.8095 63.1641 18.9494 63.5084 17.7454 63.7954C16.5413 64.0537 14.8499 64.1971 12.6425 64.1971C10.7791 64.1971 9.25968 63.9676 8.0843 63.5085C6.90892 63.0493 6.02024 62.5041 5.33221 61.9302C4.67285 61.3563 4.21416 60.8111 3.98482 60.3233C3.75548 59.8354 3.61213 59.5485 3.61213 59.5198L0 60.5241C0 60.5241 0.0860086 60.811 0.229348 61.1841C0.372687 61.5571 0.630665 62.0163 1.00335 62.5615C1.37603 63.1067 1.83474 63.7093 2.46543 64.3406C3.06746 64.9719 3.84148 65.5458 4.78752 66.091C5.73355 66.6076 6.85159 67.0667 8.14164 67.4111C9.4317 67.7554 10.9511 67.9276 12.6712 67.9276C13.3019 67.9276 14.0472 67.9275 14.9072 67.8702C15.7673 67.8415 16.656 67.7554 17.602 67.6119C18.5481 67.4684 19.4654 67.2388 20.3541 66.9232C21.2715 66.6075 22.0742 66.1485 22.7909 65.5745C23.5076 65.0006 24.1096 64.2545 24.5683 63.365C25.027 62.4467 25.2563 61.3563 25.2563 60.065C25.2563 58.9458 25.027 57.9989 24.5396 57.1954C24.0809 56.3919 23.4503 55.7319 22.6762 55.1867L22.6475 55.2441Z" fill="#F9F9F9"/>
<path d="M50.6562 63.623C50.2835 63.3073 49.9682 62.8769 49.6815 62.303C49.3948 61.7291 49.2514 61.0403 49.2514 60.2082C49.2514 59.9786 49.2514 59.5482 49.2514 58.9743C49.2514 58.3717 49.2801 57.7691 49.3088 57.1378C49.3375 56.4204 49.3661 55.6169 49.3948 54.7273C49.3948 53.0343 49.1941 51.3699 48.8214 49.763C48.4488 48.156 47.7894 46.6926 46.8147 45.43C45.8687 44.1674 44.5786 43.1343 42.9732 42.3595C41.3678 41.5848 39.3324 41.2117 36.8956 41.2117C33.4842 41.2117 30.7034 42.0726 28.5246 43.7943L30.8467 46.75C32.3661 45.5734 34.3729 44.9708 36.9243 44.9708C38.4724 44.9708 39.7624 45.2004 40.7945 45.6308C41.8265 46.0613 42.6865 46.6639 43.3459 47.3813C44.0052 48.0986 44.5213 48.9308 44.8366 49.8491C45.1806 50.7673 45.3813 51.7143 45.5247 52.69H45.0373C44.5213 51.9439 43.9192 51.2265 43.1739 50.5952C42.5719 50.0787 41.8265 49.6195 40.9378 49.1891C40.0491 48.7587 39.0171 48.5578 37.8417 48.5578C35.9209 48.5578 34.2582 48.8448 32.9395 49.4187C31.5921 49.9926 30.5027 50.7387 29.6427 51.6282C28.7826 52.5178 28.1806 53.5508 27.7793 54.6986C27.3779 55.8465 27.1772 56.9656 27.1772 58.1134C27.1772 59.376 27.4066 60.6386 27.8653 61.8438C28.324 63.0778 29.012 64.1682 29.9294 65.1438C30.8467 66.1195 31.9648 66.9229 33.2835 67.5256C34.6022 68.1282 36.1503 68.4438 37.8703 68.4438C39.103 68.4438 40.1637 68.2717 41.0524 67.8986C41.9412 67.5256 42.6865 67.0951 43.3172 66.6073C43.9479 66.1195 44.4639 65.6316 44.8653 65.1438C45.2666 64.656 45.582 64.283 45.8687 63.996H46.4134C46.7574 64.5986 47.13 65.1438 47.5601 65.603C47.9901 66.0621 48.4201 66.4925 48.8788 66.8368C49.3375 67.1812 49.7675 67.4682 50.2262 67.6977C50.6562 67.9273 51.0575 68.0708 51.4302 68.1855L52.2902 64.5125C52.2902 64.5125 52.0322 64.3977 51.7169 64.2829C51.4015 64.1682 51.0575 63.9386 50.6848 63.623H50.6562ZM45.0086 60.4377C44.7793 61.1551 44.3779 61.8438 43.8046 62.4751C43.2312 63.1065 42.4572 63.6516 41.4825 64.0534C40.5078 64.4838 39.3037 64.6847 37.8703 64.6847C36.7523 64.6847 35.7489 64.4838 34.8889 64.1108C34.0002 63.7377 33.2835 63.2212 32.7102 62.6186C32.1368 61.9873 31.7068 61.2986 31.3914 60.5238C31.0761 59.749 30.9327 58.9456 30.9327 58.1134C30.9327 56.9656 31.1908 56.0186 31.6781 55.2439C32.1655 54.4691 32.7962 53.8952 33.5128 53.4647C34.2295 53.0343 35.0036 52.7186 35.7776 52.5465C36.5516 52.3743 37.2397 52.2882 37.813 52.2882C38.9597 52.2882 39.9918 52.4604 40.9378 52.8334C41.8838 53.2065 42.6579 53.6656 43.3172 54.2395C43.9766 54.8134 44.464 55.4734 44.808 56.2195C45.152 56.9656 45.324 57.7117 45.324 58.4577C45.324 59.0317 45.2093 59.6917 44.98 60.4091L45.0086 60.4377Z" fill="#F9F9F9"/>
<path d="M59.3999 39.433C59.5719 39.0313 59.8012 38.7156 60.1165 38.4861C60.4319 38.2565 60.8906 38.113 61.4639 38.113C61.894 38.113 62.238 38.1991 62.496 38.3712C62.754 38.5434 63.012 38.7156 63.2127 38.9452C63.4133 39.2034 63.614 39.4904 63.7573 39.806L67.2835 38.4C67.1402 38.0269 66.9108 37.6252 66.5955 37.166C66.2801 36.7069 65.8788 36.2478 65.3914 35.8461C64.9041 35.4443 64.3307 35.1 63.7 34.813C63.0407 34.5261 62.2953 34.3826 61.4639 34.3826C60.0879 34.3826 58.9698 34.6409 58.1385 35.1287C57.3071 35.6165 56.6764 36.2765 56.2464 37.0226C55.8164 37.7973 55.5297 38.6295 55.415 39.5478C55.3004 40.466 55.243 41.3556 55.243 42.2452H51.6309V46.0043H55.243V67.1242H58.9985V46.0043H66.7101V42.2452H58.9985C58.9985 41.7573 59.0272 41.2695 59.0845 40.7817C59.1418 40.2939 59.2565 39.8348 59.4285 39.433H59.3999Z" fill="#F9F9F9"/>
<path d="M90.6476 54.297C90.6476 53.637 90.5902 52.8623 90.5042 51.9727C90.4182 51.0831 90.2462 50.1362 89.9882 49.1605C89.7302 48.1849 89.3575 47.2092 88.8702 46.2623C88.3828 45.3153 87.7521 44.4545 86.9781 43.7371C86.2041 43.0197 85.2294 42.3884 84.0827 41.9292C82.936 41.4701 81.5886 41.2405 80.0119 41.2405C78.2918 41.2405 76.7724 41.4701 75.4823 41.9579C74.1923 42.4458 73.0742 43.0771 72.1569 43.8518C71.2395 44.6266 70.4655 45.4875 69.8634 46.4918C69.2614 47.4675 68.7741 48.4718 68.43 49.4475C68.086 50.4518 67.828 51.3988 67.7133 52.317C67.5987 53.2353 67.5127 54.0388 67.5127 54.7562C67.5127 59.1466 68.5734 62.4753 70.7235 64.7996C72.8736 67.124 75.9697 68.2717 80.0119 68.2717C80.6999 68.2717 81.4452 68.2144 82.2479 68.0709C83.0506 67.9274 83.8533 67.6978 84.656 67.3822C85.4587 67.0665 86.2327 66.6648 86.9781 66.177C87.7235 65.6892 88.4115 65.0865 88.9848 64.3692L86.0321 61.9587C85.6594 62.4179 85.258 62.7909 84.7707 63.1066C84.2833 63.4222 83.7673 63.6805 83.2226 63.8813C82.6779 64.0822 82.1332 64.2257 81.5886 64.3405C81.0439 64.4553 80.5279 64.5126 80.0119 64.5126C77.2597 64.5126 75.167 63.8526 73.7623 62.504C72.3289 61.184 71.5262 59.0892 71.3255 56.2483H90.6763V54.3544L90.6476 54.297ZM71.3828 52.4605C71.5262 51.4849 71.7842 50.5666 72.1282 49.677C72.4722 48.7875 72.9882 47.984 73.6476 47.2953C74.307 46.6066 75.167 46.0327 76.1703 45.631C77.2024 45.2005 78.4638 44.9997 79.9832 44.9997C81.2159 44.9997 82.2479 45.2292 83.0793 45.6884C83.9107 46.1475 84.57 46.7214 85.086 47.4675C85.602 48.1849 85.9748 48.9884 86.2328 49.9066C86.4908 50.8249 86.6628 51.657 86.7488 52.5179H71.3542L71.3828 52.4605Z" fill="#F9F9F9"/>
<path d="M31.42 4.10851C33.2834 4.73981 34.1722 7.09285 34.8602 9.53197L38.7303 8.44157C38.1283 6.23201 36.8383 1.6694 32.6241 0.263315C30.6174 -0.310596 28.6393 0.0624476 27.2346 1.29636C25.8012 2.53027 25.1705 4.42418 25.5145 6.46157C25.6865 7.81026 26.2312 9.04417 26.6325 9.96243C28.6106 14.4389 30.8467 18.8867 33.2835 23.1624C34.1435 24.6832 34.9175 26.1467 34.6022 27.2372C34.2582 28.4137 32.5668 28.9876 31.3054 28.758C29.528 28.4711 27.9226 27.2084 26.4319 25.8597C26.0019 25.458 25.5718 25.0563 25.1418 24.6545C25.9159 18.3415 24.7405 11.799 21.845 6.11723C20.985 4.48159 19.5802 2.15725 17.1721 1.00943C15.7101 0.320734 13.9327 0.234642 12.3846 0.779858C11.0659 1.23899 10.0625 2.15724 9.51784 3.33376C8.42847 5.6294 9.48917 8.15462 9.91919 9.21636C12.4706 15.4146 16.2261 21.1824 20.8703 26.0319C20.383 28.4136 19.1216 30.8815 16.9141 31.1398C15.1654 31.3119 13.474 29.791 12.3273 28.4997C6.19241 21.4693 4.931 11.9137 4.01363 1.06679L0.0288086 1.41116C0.802839 10.3355 1.8349 22.5598 9.31719 31.1398C11.6393 33.7798 14.162 35.1571 16.6561 35.1571C16.8855 35.1571 17.1148 35.1571 17.3442 35.1284C20.813 34.7267 22.9917 32.1441 24.1098 29.1598C25.8872 30.7093 28.0086 32.2589 30.6173 32.6893C33.6848 33.1771 37.4403 31.6849 38.415 28.3276C39.2464 25.5154 37.727 22.8754 36.7523 21.1537C34.4015 16.9928 32.2227 12.6598 30.302 8.29808C29.9006 7.37982 29.5853 6.63372 29.4706 5.85894C29.356 5.17025 29.4993 4.62505 29.872 4.3094C30.2447 3.99375 30.818 3.90766 31.42 4.07983V4.10851ZM13.5887 7.69545C13.2447 6.86328 12.8146 5.65809 13.1013 5.02679C13.216 4.76853 13.5027 4.62504 13.7034 4.56765C13.9327 4.48156 14.1907 4.45289 14.4487 4.45289C14.7927 4.45289 15.1368 4.51025 15.4234 4.65373C16.4268 5.14156 17.2868 6.14591 18.2329 7.98243C20.2396 11.8563 21.3003 16.1894 21.329 20.5798C18.1469 16.7059 15.5094 12.3442 13.6174 7.72418L13.5887 7.69545Z" fill="#F9F9F9"/>
</svg>
