<svg width="23" height="19" viewBox="0 0 23 19" fill="none" xmlns="http://www.w3.org/2000/svg">
<path d="M11.3629 11.25C14.4754 11.25 16.9879 8.7375 16.9879 5.625C16.9879 2.5125 14.4754 0 11.3629 0C8.25044 0 5.73794 2.5125 5.73794 5.625C5.73794 8.7375 8.25044 11.25 11.3629 11.25ZM11.3629 1.6875C13.5379 1.6875 15.3004 3.45 15.3004 5.625C15.3004 7.8 13.5379 9.5625 11.3629 9.5625C9.18794 9.5625 7.42544 7.8 7.42544 5.625C7.42544 3.45 9.18794 1.6875 11.3629 1.6875Z" fill="#355130"/>
<path d="M22.4254 17.4C19.3504 14.8125 15.4504 13.3875 11.3629 13.3875C7.27544 13.3875 3.37544 14.8125 0.300439 17.4C-0.0370613 17.7 -0.112061 18.225 0.187939 18.6C0.487939 18.9375 1.01294 19.0125 1.38794 18.7125C4.16294 16.35 7.68794 15.075 11.3629 15.075C15.0379 15.075 18.5629 16.35 21.3004 18.675C21.4504 18.825 21.6379 18.8625 21.8629 18.8625C22.0879 18.8625 22.3504 18.75 22.5004 18.5625C22.8004 18.225 22.7629 17.7 22.4254 17.4Z" fill="#355130"/>
</svg>
